PathFileType  4	(X/Y/Z) C:\Users\antoi\Documents\MyRepositories\mobilecap\ResultsAnalysis
DataRate	CameraRate	NumFrames	NumMarkers	Units	OrigDataRate	OrigDataStartFrame	OrigNumFrames
100.0	100.0	7	51	mm	100.0	54	143
Frame#	Time	r_knee			r_shank_antsup			r_ankle			r_calc			r_5meta			r_toe			L_knee			L_shank_antsup			L_ankle			L_calc			L_5meta			L_toe			r_sh2			r_sh3			r_sh4			L_sh2			L_sh3			r_thigh1			r_thigh2			r_thigh3			r_thigh4			r_thigh5			L_thigh1			L_thigh2			L_thigh3			L_thigh4			r.ASIS			r.PSIS			L.ASIS			L.PSIS			C7			R_Shoulder			L_Shoulder			R_Sternum			L_Sternum			R_humerus			R_elbow_med			R_elbow_lat			R_forearm			R_wrist_radius			R_wrist_ulna			L_humerus			L_elbow_med			L_elbow_lat			L_forearm			L_wrist_radius			L_wrist_ulna			R_HJC			L_HJC			R_HJC_reg			L_HJC_reg			
		X1	Y1	Z1	X2	Y2	Z2	X3	Y3	Z3	X4	Y4	Z4	X5	Y5	Z5	X6	Y6	Z6	X7	Y7	Z7	X8	Y8	Z8	X9	Y9	Z9	X10	Y10	Z10	X11	Y11	Z11	X12	Y12	Z12	X13	Y13	Z13	X14	Y14	Z14	X15	Y15	Z15	X16	Y16	Z16	X17	Y17	Z17	X18	Y18	Z18	X19	Y19	Z19	X20	Y20	Z20	X21	Y21	Z21	X22	Y22	Z22	X23	Y23	Z23	X24	Y24	Z24	X25	Y25	Z25	X26	Y26	Z26	X27	Y27	Z27	X28	Y28	Z28	X29	Y29	Z29	X30	Y30	Z30	X31	Y31	Z31	X32	Y32	Z32	X33	Y33	Z33	X34	Y34	Z34	X35	Y35	Z35	X36	Y36	Z36	X37	Y37	Z37	X38	Y38	Z38	X39	Y39	Z39	X40	Y40	Z40	X41	Y41	Z41	X42	Y42	Z42	X43	Y43	Z43	X44	Y44	Z44	X45	Y45	Z45	X46	Y46	Z46	X47	Y47	Z47	X48	Y48	Z48	X49	Y49	Z49	X50	Y50	Z50	X51	Y51	Z51	

54	0.53000000	384.33077	483.50983	-67.97190	400.43695	406.49435	-92.68097	235.81941	103.93467	-113.71352	159.95046	78.56454	-148.54006	332.31736	40.95983	-82.62064	382.64792	64.42207	-140.94501	671.46959	493.94038	-335.70737	736.52392	427.35870	-342.45330	815.19082	119.17479	-326.65706	770.97337	56.95586	-278.44436	943.73602	99.21758	-358.72736	967.41657	146.51600	-310.55944	347.15404	303.43269	-75.06136	330.67052	438.59947	-54.94983	279.72058	339.03570	-59.22059	650.45193	400.75216	-340.96934	699.40674	287.27708	-351.46729	535.89462	771.29786	-20.53547	501.67091	664.91914	-35.84142	443.25472	656.35015	-12.48542	428.50102	798.76453	3.18327	394.95838	687.65454	-21.41317	491.69770	704.78986	-337.54269	556.68118	578.64735	-325.76917	594.14772	748.17474	-381.60690	652.46564	625.72506	-358.53309	584.70330	944.88909	-54.87931	396.78427	991.04996	-142.84784	598.07540	930.13538	-305.11451	394.08973	989.50783	-243.51913	394.48951	1395.19111	-193.83590	515.22254	1363.52741	-28.01541	453.88785	1356.96313	-380.49839	536.92770	1363.15796	-189.69180	535.68926	1364.29112	-233.25024	554.57680	1230.34259	27.51433	527.25509	1011.90209	-1.63592	562.12432	1031.05035	54.52292	674.45846	946.64573	30.80374	760.01057	843.50403	2.75839	744.94723	823.63094	30.26958	436.24675	1240.80542	-433.85736	356.92913	1029.41342	-336.73491	347.92623	1046.27840	-414.56044	373.09552	934.14851	-438.20643	344.28515	777.37749	-451.17759	312.34500	788.19566	-462.38543	503.83303	868.50621	-79.64175	512.58494	861.14082	-285.79482	515.57167	869.98236	-86.75233	511.14062	867.44505	-252.35132	
55	0.54000000	392.19854	482.68599	-68.40340	407.23324	405.12634	-93.08218	236.97381	105.39844	-113.32263	160.79789	80.99310	-148.32152	332.59358	40.90579	-82.49604	383.28344	64.01973	-140.70081	683.29464	492.16890	-335.86827	747.71887	424.92839	-342.45701	824.78253	116.72476	-325.86768	780.50900	55.27731	-277.41201	953.08083	96.46357	-358.08537	977.26907	143.97891	-310.12360	352.20583	303.03184	-75.22435	338.06002	438.50132	-55.38299	285.35485	339.82940	-59.41460	661.38274	398.74666	-340.95379	709.72091	285.05207	-351.19170	545.80843	769.31308	-21.02968	511.03248	663.15590	-36.56290	452.24545	655.17333	-13.02043	438.52870	797.73971	2.12267	404.17336	686.73389	-22.34060	504.01047	703.19481	-338.97560	568.85030	577.18016	-326.73627	606.73022	746.73356	-382.53150	664.80479	624.21879	-359.00018	596.16979	942.61480	-55.35480	408.59176	989.21869	-144.47274	610.35923	927.92624	-305.67330	406.27529	987.80173	-245.12550	406.43479	1393.25566	-195.20700	527.25890	1361.64242	-29.38583	465.96676	1355.07300	-381.89976	548.89680	1361.39612	-191.10532	547.75364	1362.51334	-234.68908	567.10511	1228.51552	25.78334	539.96885	1009.95165	-3.25906	575.02442	1029.22936	52.74562	687.31555	944.85627	28.55367	772.66963	841.76725	0.13242	757.93977	821.93934	27.75389	447.82040	1239.09712	-435.08320	368.35123	1027.89051	-337.54323	358.38624	1045.08483	-415.21275	381.73785	933.05936	-439.63081	350.31767	776.66184	-452.75766	318.44381	788.11507	-463.51226	515.05568	866.45472	-80.68192	524.73331	859.11026	-286.79494	526.95051	867.73106	-87.59348	523.13796	865.39861	-253.29465	
56	0.55000000	400.64698	481.79727	-69.02759	414.52726	403.68639	-93.61717	238.42306	107.12273	-112.99534	161.82526	83.87140	-148.04071	332.94246	40.89742	-82.37016	384.03493	63.58100	-140.43736	695.68979	490.73179	-335.93356	759.01191	422.37086	-342.28590	832.10338	113.75685	-324.83989	786.99506	54.12597	-276.27489	959.79058	92.03494	-357.22856	985.01375	139.18503	-309.31193	357.66247	302.65303	-75.47832	346.03404	438.39369	-55.91093	291.45613	340.71802	-59.65719	672.17137	397.25819	-340.76878	719.02958	283.00696	-350.68173	556.07024	767.37151	-21.70054	520.76238	661.47368	-37.29444	461.72546	653.96376	-13.67291	448.90582	796.66670	0.94930	413.84336	685.75135	-23.32706	516.90775	701.77460	-340.72736	581.78648	576.04201	-327.93865	620.01031	745.75498	-383.30889	677.87657	623.19546	-359.42225	607.75020	940.36997	-55.88980	420.59670	987.48102	-146.11969	622.76543	926.02592	-306.32481	418.57267	986.30109	-246.75397	418.50803	1391.48358	-196.64883	539.42830	1359.99511	-30.81816	478.16110	1353.32821	-383.36541	560.98138	1359.80422	-192.58863	559.93069	1360.88382	-236.19202	579.63036	1226.89250	24.04948	552.60096	1008.24596	-4.98908	587.81068	1027.62634	50.93443	699.98053	943.13970	26.36207	784.98216	839.97233	-2.30744	770.60617	820.25303	25.43843	459.60737	1237.49953	-436.38676	380.07458	1026.38824	-338.54815	369.28641	1043.84460	-416.00429	390.98748	932.02782	-441.18489	356.85680	775.94168	-454.34979	325.27672	788.00880	-464.84856	526.43064	864.44823	-81.87888	537.02895	857.35029	-287.95589	538.53356	865.53967	-88.51699	535.19910	863.59680	-254.32950	
57	0.56000000	409.66877	480.86900	-69.85186	422.32207	402.19860	-94.28698	240.21071	109.18108	-112.72129	163.09154	87.26309	-147.71330	333.37057	40.94640	-82.24919	384.93205	63.12274	-140.13817	708.30852	489.55712	-335.92944	770.31690	419.81678	-341.94014	837.90781	110.61482	-323.59034	791.31824	53.66109	-275.06757	964.63131	86.49878	-356.08299	991.40929	132.74020	-308.04557	363.52642	302.33908	-75.81623	354.57211	438.33163	-56.54610	298.03555	341.73412	-59.96608	682.86911	396.18252	-340.45149	727.73012	281.16946	-349.95312	566.73136	765.49956	-22.56491	530.90623	659.86768	-38.07951	471.72745	652.74180	-14.48366	459.67568	795.56067	-0.33660	424.00047	684.72982	-24.41358	530.15150	700.63836	-342.66325	595.12406	575.21341	-329.24273	633.71121	745.12143	-384.02111	691.33296	622.50434	-359.86043	619.53000	938.19975	-56.52688	432.82251	985.85494	-147.75724	635.32762	924.50071	-307.10076	431.00923	985.02973	-248.37440	430.68107	1389.91428	-198.15504	551.73375	1358.60380	-32.30955	490.46755	1351.75345	-384.89102	573.18617	1358.40776	-194.13034	572.20845	1359.42342	-237.74372	592.16358	1225.49103	22.32412	565.13025	1006.80516	-6.81644	600.44020	1026.24774	49.10488	712.43240	941.52817	24.25372	796.95799	838.15896	-4.54873	782.92543	818.60143	23.32320	471.60216	1236.03297	-437.77061	392.06109	1024.94547	-339.74305	380.60444	1042.60813	-416.94077	400.85791	931.05792	-442.84925	363.91037	775.20813	-455.90593	332.90114	787.86177	-466.38536	538.04910	862.51821	-83.24698	549.51176	855.91261	-289.29416	550.39146	863.44335	-89.57166	547.40132	862.08477	-255.49543	
58	0.57000000	419.27378	479.92606	-70.85968	430.62894	400.68717	-95.07555	242.35958	111.62637	-112.47546	164.66276	91.22087	-147.35653	333.88710	41.06446	-82.13927	386.00264	62.65837	-139.79059	720.82277	488.59188	-335.89641	781.58705	417.40362	-341.44817	842.90370	107.61310	-322.17220	794.38282	53.90980	-273.81651	968.35728	80.41807	-354.58982	997.12393	125.32857	-306.28909	369.82056	302.13398	-76.22584	363.66090	438.37139	-57.28669	305.11166	342.91330	-60.35682	693.54801	395.43246	-340.06478	736.21542	279.58318	-349.05932	577.82747	763.73269	-23.62536	541.51822	658.34167	-38.97739	482.26998	651.53022	-15.48050	470.86491	794.44254	-1.73431	434.66694	683.69476	-25.63667	543.51039	699.85036	-344.64412	608.48493	574.67681	-330.53420	647.55356	744.71466	-384.77343	704.83590	622.00633	-360.35205	631.57782	936.15341	-57.29832	445.27502	984.36518	-149.35989	648.07540	923.39914	-308.01709	443.60470	984.01233	-249.96369	442.93381	1388.57794	-199.72105	564.16548	1357.48220	-33.85884	502.87588	1350.37027	-386.47215	585.50969	1357.23565	-195.72033	584.57518	1358.16046	-239.33496	604.71458	1224.32943	20.60311	577.53712	1005.64195	-8.71913	612.87259	1025.09598	47.26508	724.65823	940.05420	22.25229	808.61557	836.36660	-6.58092	794.87996	817.00833	21.41007	483.79280	1234.71872	-439.23549	404.27880	1023.59637	-341.11839	392.30828	1041.43586	-418.03341	411.34931	930.15901	-444.60771	371.61828	774.47636	-457.43756	341.39873	787.67617	-468.10952	549.97826	860.70303	-84.78867	562.21120	854.83842	-290.81293	562.57208	861.47969	-90.79805	559.81541	860.90009	-256.82155	
59	0.58000000	429.50425	478.98787	-72.01126	439.47509	399.17602	-95.94755	244.87783	114.48933	-112.22475	166.60737	95.79078	-146.98336	334.50429	41.26490	-82.04505	387.26349	62.19342	-139.39585	733.01488	487.81112	-335.87542	792.83454	415.24118	-340.85672	847.60860	104.96089	-320.67247	796.91801	54.75226	-272.55631	971.56537	74.25478	-352.76028	1002.58759	117.56190	-304.08032	376.58090	302.07948	-76.68689	373.31195	438.55628	-58.11639	312.71594	344.29179	-60.83492	704.28721	394.95967	-339.68092	744.77889	278.29414	-348.08435	589.37521	762.11213	-24.87362	552.65126	656.91242	-40.03867	493.36285	650.35159	-16.67359	482.48333	793.33642	-3.24737	445.85902	682.67024	-27.02198	556.80293	699.42586	-346.56924	621.56335	574.41488	-331.74052	661.31613	744.44201	-385.65469	718.12752	621.59882	-360.90258	643.92930	934.28342	-58.22372	457.94365	983.04453	-150.91476	661.02897	922.74718	-309.07143	456.36786	983.27243	-251.51183	455.25581	1387.49245	-201.34437	576.70129	1356.64155	-35.46514	515.37311	1349.19789	-388.10401	597.94219	1356.31602	-197.35093	597.02197	1357.12737	-240.96300	617.28486	1223.42766	18.87255	589.80259	1004.76666	-10.66460	625.07012	1024.17251	45.41799	736.65123	938.74799	20.37618	819.97250	834.63330	-8.39546	806.45883	815.49431	19.70646	496.16542	1233.58160	-440.77968	416.70240	1022.37363	-342.66234	404.35996	1040.38964	-419.29763	422.45082	929.34639	-446.44797	380.23207	773.78278	-459.01233	350.85515	787.46390	-470.00859	562.24882	859.04791	-86.49437	575.14131	854.15451	-292.50160	575.09178	859.69264	-92.22027	572.48963	860.07131	-258.31848	
60	0.59000000	440.43948	478.06371	-73.24598	448.90888	397.68795	-96.84691	247.77419	117.79163	-111.93183	168.99573	101.01988	-146.59777	335.23528	41.56283	-81.96818	388.71120	61.72181	-138.97453	744.83992	487.21931	-335.89492	804.11067	413.38693	-340.21547	852.28644	102.73750	-319.19118	799.36492	55.97303	-271.33417	974.60474	68.33689	-350.71113	1007.93608	109.89273	-301.54733	383.84797	302.21236	-77.16612	383.57378	438.90742	-59.00655	320.89625	345.90470	-61.39058	715.14855	394.75510	-339.37455	753.55639	277.33678	-347.13542	601.37409	760.68013	-26.29446	564.34980	655.60549	-41.28745	505.01603	649.22611	-18.05349	494.52573	792.26667	-4.88653	457.59148	681.67396	-28.57957	569.92663	699.35400	-348.40810	634.19924	574.40944	-332.83943	674.87524	744.25625	-386.70858	731.07814	621.23528	-361.49036	656.58214	932.64324	-59.31070	470.80512	981.93074	-152.42529	674.19426	922.54563	-310.24741	469.29618	982.82784	-253.02404	467.64207	1386.66143	-203.02502	589.30922	1356.08985	-37.12631	527.94748	1348.25313	-389.78190	610.46528	1355.67066	-199.01712	609.54301	1356.35481	-242.62817	629.86253	1222.80438	17.11934	601.90636	1004.18962	-12.61503	636.99788	1023.47839	43.56704	748.40509	937.63239	18.63839	831.03684	832.99331	-9.98486	817.65891	814.07998	18.22593	508.70773	1232.64895	-442.39866	429.31287	1021.31287	-344.36116	416.72432	1039.51872	-420.74747	434.14658	928.63940	-448.36066	390.02993	773.17204	-460.72480	361.33659	787.23625	-472.07507	574.85325	857.60203	-88.34489	588.29878	853.86940	-294.33842	587.93415	858.13181	-93.84322	585.44180	859.61459	-259.97779	
